<svg xmlns="http://www.w3.org/2000/svg" width="46.171" height="46.055" viewBox="0 0 46.171 46.055">
  <path id="github" d="M17.856,38.7C6.53,41.834,6.53,33.464,2,32.418M33.713,44.973v-8.1a6.745,6.745,0,0,0-2.129-5.462c7.113-.732,14.588-3.223,14.588-14.648a10.935,10.935,0,0,0-3.4-7.846,9.863,9.863,0,0,0-.205-7.89S39.9.3,33.713,4.126a32.725,32.725,0,0,0-15.856,0C11.672.3,9,1.029,9,1.029a9.863,9.863,0,0,0-.2,7.889,10.933,10.933,0,0,0-3.4,7.91c0,11.342,7.475,13.832,14.588,14.648a6.748,6.748,0,0,0-2.129,5.4v8.1" transform="translate(-1 0.082)" fill="none" stroke="#91d9ff" stroke-linecap="round" stroke-linejoin="round" stroke-width="2"/>
</svg>
