<?xml version="1.0" encoding="UTF-8"?>
<!-- Created with Inkscape (http://www.inkscape.org/) -->
<svg width="210mm" height="297mm" version="1.1" viewBox="0 0 210 297" xmlns="http://www.w3.org/2000/svg" xmlns:cc="http://creativecommons.org/ns#" xmlns:dc="http://purl.org/dc/elements/1.1/" xmlns:rdf="http://www.w3.org/1999/02/22-rdf-syntax-ns#">
 <metadata>
  <rdf:RDF>
   <cc:Work rdf:about="">
    <dc:format>image/svg+xml</dc:format>
    <dc:type rdf:resource="http://purl.org/dc/dcmitype/StillImage"/>
    <dc:title/>
   </cc:Work>
  </rdf:RDF>
 </metadata>
 <g stroke-width=".26458">
  <path d="m74.083 223.67v-3.9688h7.9375v-47.625h-15.875v-63.5h7.9375v-31.75h7.9375v-15.875h47.625v15.875h7.9375v7.9375h7.9375v87.313h-15.875v55.562h-23.812v-7.9375h7.9375v-47.625h-15.875v55.562h-23.812z" fill="#3e50b4"/>
  <path d="m74.083 223.67v-3.9688h23.812v7.9375h-23.812zm31.75 0v-3.9688h23.812v7.9375h-23.812zm-39.688-83.344v-31.75h7.9375v-31.75h7.9375v-15.875h47.625v15.875h7.9375v7.9375h7.9375v87.313h-15.875v-15.875h-23.812v15.875h-7.9375v-15.875h-15.875v15.875h-15.875z" fill="#3848a2"/>
  <path d="m74.083 223.67v-3.9688h23.812v7.9375h-23.812zm31.75 0v-3.9688h23.812v7.9375h-23.812zm-39.688-83.344v-31.75h7.9375v-31.75h7.9375v-15.875h47.625v15.875h7.9375v7.9375h7.9375v87.313h-15.875v-15.875h-47.625v15.875h-15.875z" fill="#a76d09"/>
  <path d="m74.083 223.67v-3.9688h23.812v7.9375h-23.812zm31.75 0v-3.9688h23.812v7.9375h-23.812zm-31.75-71.438v-3.9688h7.9375v-23.812h-15.875v-15.875h7.9375v-31.75h7.9375v-15.875h47.625v15.875h7.9375v7.9375h7.9375v39.688h-15.875v31.75h-55.563zm47.625-39.688v-3.9688h7.9375v-23.813h-7.9375v-7.9375h-31.75v7.9375h-7.9375v23.813h7.9375v7.9375h31.75zm-23.813-7.9375v-3.9688h-7.9375v-7.9375h7.9375v7.9375h15.875v-7.9375h7.9375v7.9375h-7.9375v7.9375h-15.875zm-31.75 31.75v-3.9688h7.9375v7.9375h-7.9375z" fill="#5b411a"/>
  <path d="m74.083 152.24v-3.9688h7.9375v-23.812h-15.875v-15.875h7.9375v-31.75h7.9375v-15.875h47.625v15.875h7.9375v7.9375h7.9375v39.688h-15.875v31.75h-55.563zm47.625-39.688v-3.9688h7.9375v-23.813h-7.9375v-7.9375h-31.75v7.9375h-7.9375v23.813h7.9375v7.9375h31.75zm-23.813-7.9375v-3.9688h-7.9375v-7.9375h7.9375v7.9375h15.875v-7.9375h7.9375v7.9375h-7.9375v7.9375h-15.875zm-31.75 31.75v-3.9688h7.9375v7.9375h-7.9375z" fill="#1a5d1e"/>
  <path d="m74.083 152.24v-3.9688h7.9375v7.9375h-7.9375zm-7.9375-15.875v-3.9688h7.9375v7.9375h-7.9375zm7.9375-43.656v-15.875h7.9375v-15.875h47.625v15.875h7.9375v7.9375h7.9375v23.813h-15.875v-23.813h-7.9375v-7.9375h-31.75v7.9375h-7.9375v23.813h-7.9375zm23.812 11.906v-3.9688h-7.9375v-7.9375h7.9375v7.9375h15.875v-7.9375h7.9375v7.9375h-7.9375v7.9375h-15.875z" fill="#1b1b1b"/>
  <path d="m74.083 152.24v-3.9688h7.9375v7.9375h-7.9375zm-7.9375-15.875v-3.9688h7.9375v7.9375h-7.9375zm31.75-31.75v-3.9688h-7.9375v-7.9375h7.9375v7.9375h15.875v-7.9375h7.9375v7.9375h-7.9375v7.9375h-15.875zm-23.812-7.9375v-3.9688h7.9375v7.9375h-7.9375zm63.5 0v-3.9688h-7.9375v-7.9375h15.875v15.875h-7.9375zm-47.625-23.812v-3.9688h7.9375v-7.9375h7.9375v7.9375h15.875v-7.9375h7.9375v7.9375h-7.9375v7.9375h-15.875v-7.9375h-7.9375v7.9375h-7.9375z" fill="#040404"/>
 </g>
</svg>
