<?xml version="1.0" encoding="UTF-8"?>
<!-- Created with Inkscape (http://www.inkscape.org/) -->
<svg width="210mm" height="297mm" version="1.1" viewBox="0 0 210 297" xmlns="http://www.w3.org/2000/svg" xmlns:cc="http://creativecommons.org/ns#" xmlns:dc="http://purl.org/dc/elements/1.1/" xmlns:rdf="http://www.w3.org/1999/02/22-rdf-syntax-ns#">
 <metadata>
  <rdf:RDF>
   <cc:Work rdf:about="">
    <dc:format>image/svg+xml</dc:format>
    <dc:type rdf:resource="http://purl.org/dc/dcmitype/StillImage"/>
    <dc:title/>
   </cc:Work>
  </rdf:RDF>
 </metadata>
 <g stroke-width=".26458">
  <path d="m72.949 213.85v-3.9688h7.9375v-47.625h-15.875v-63.5h7.9375v-31.75h7.9375v-15.875h47.625v15.875h7.9375v31.75h7.9375v63.5h-15.875v55.562h-23.812v-7.9375h7.9375v-47.625h-15.875v55.562h-23.812z" fill="#3e50b4"/>
  <path d="m72.949 213.85v-3.9688h23.812v7.9375h-23.812zm31.75 0v-3.9688h23.812v7.9375h-23.812zm-39.687-83.344v-31.75h7.9375v-31.75h7.9375v-15.875h47.625v15.875h7.9375v31.75h7.9375v63.5h-15.875v-15.875h-47.625v15.875h-15.875z" fill="#a76d09"/>
  <path d="m72.949 213.85v-3.9688h23.812v7.9375h-23.812zm31.75 0v-3.9688h23.812v7.9375h-23.812zm-23.812-83.344v-15.875h-15.875v-15.875h7.9375v-31.75h7.9375v-15.875h47.625v15.875h7.9375v31.75h7.9375v15.875h-15.875v23.812h7.9375v7.9375h-55.562zm55.562-3.9688v-3.9688h7.9375v7.9375h-7.9375z" fill="#5b411a"/>
  <path d="m80.887 130.5v-15.875h-15.875v-15.875h7.9375v-31.75h7.9375v-15.875h47.625v15.875h7.9375v31.75h7.9375v15.875h-15.875v23.812h7.9375v7.9375h-55.562zm55.562-3.9688v-3.9688h7.9375v7.9375h-7.9375z" fill="#1a5d1e"/>
  <path d="m128.51 142.41v-3.9688h7.9375v7.9375h-7.9375zm7.9375-15.875v-3.9688h7.9375v7.9375h-7.9375zm-39.687-7.9375v-3.9688h-7.9375v-7.9375h-7.9375v-7.9375h-7.9375v-31.75h7.9375v-15.875h47.625v15.875h7.9375v31.75h-7.9375v7.9375h-7.9375v7.9375h-7.9375v7.9375h-15.875z" fill="#232323"/>
  <path d="m128.51 142.41v-3.9688h7.9375v7.9375h-7.9375zm7.9375-15.875v-3.9688h7.9375v7.9375h-7.9375zm-39.687-7.9375v-3.9688h-7.9375v-7.9375h-7.9375v-7.9375h-7.9375v-31.75h7.9375v-15.875h39.687v7.9375h7.9375v7.9375h7.9375v31.75h-7.9375v7.9375h-7.9375v7.9375h-7.9375v7.9375h-15.875zm23.812-55.562v-3.9688h-7.9375v7.9375h7.9375z" fill="#191919"/>
  <path d="m128.51 142.41v-3.9688h7.9375v7.9375h-7.9375zm7.9375-15.875v-3.9688h7.9375v7.9375h-7.9375zm-31.75-7.9375v-3.9688h-15.875v-7.9375h-7.9375v-15.875h-7.9375v-7.9375h15.875v-7.9375h-15.875v-7.9375h15.875v-7.9375h7.9375v-7.9375h7.9375v7.9375h7.9375v7.9375h7.9375v7.9375h7.9375v7.9375h7.9375v15.875h-7.9375v7.9375h-7.9375v7.9375h-7.9375v7.9375h-7.9375zm0-15.875v-3.9687h-7.9375v7.9375h7.9375zm15.875-3.9687v-7.9375h7.9375v-7.9375h-7.9375v7.9375h-7.9375v15.875h7.9375zm-15.875-11.906v-3.9688h7.9375v-7.9375h-7.9375v7.9375h-7.9375v7.9375h7.9375zm0-23.812v-3.9688h-7.9375v7.9375h7.9375z" fill="#030303"/>
 </g>
</svg>
