<?xml version="1.0" encoding="UTF-8"?>
<!-- Created with Inkscape (http://www.inkscape.org/) -->
<svg width="210mm" height="297mm" version="1.1" viewBox="0 0 210 297" xmlns="http://www.w3.org/2000/svg" xmlns:cc="http://creativecommons.org/ns#" xmlns:dc="http://purl.org/dc/elements/1.1/" xmlns:rdf="http://www.w3.org/1999/02/22-rdf-syntax-ns#">
 <metadata>
  <rdf:RDF>
   <cc:Work rdf:about="">
    <dc:format>image/svg+xml</dc:format>
    <dc:type rdf:resource="http://purl.org/dc/dcmitype/StillImage"/>
    <dc:title/>
   </cc:Work>
  </rdf:RDF>
 </metadata>
 <g stroke-width=".26458">
  <path d="m79.753 192.3v-27.781h-15.875v-63.5h7.9375v-31.75h7.9375v-15.875h47.625v15.875h7.9375v31.75h7.9375v63.5h-15.875v47.625h7.9375v7.9375h-23.812v-55.562h-15.875v47.625h7.9375v7.9375h-23.813z" fill="#3e50b4"/>
  <path d="m79.753 216.11v-3.9688h23.813v7.9375h-23.813zm31.75 0v-3.9688h23.812v7.9375h-23.812zm-47.625-83.344v-31.75h7.9375v-31.75h7.9375v-15.875h47.625v15.875h7.9375v31.75h7.9375v63.5h-15.875v-15.875h-47.625v15.875h-15.875z" fill="#a76d09"/>
  <path d="m79.753 216.11v-3.9688h23.813v7.9375h-23.813zm31.75 0v-3.9688h23.812v7.9375h-23.812zm-31.75-83.344v-15.875h-15.875v-15.875h7.9375v-31.75h7.9375v-15.875h47.625v15.875h7.9375v31.75h7.9375v15.875h-15.875v23.812h7.9375v7.9375h-55.563zm55.563-3.9688v-3.9688h7.9375v7.9375h-7.9375z" fill="#5b411a"/>
  <path d="m79.753 132.77v-15.875h-15.875v-15.875h7.9375v-31.75h7.9375v-15.875h47.625v15.875h7.9375v31.75h7.9375v15.875h-15.875v23.812h7.9375v7.9375h-55.563zm55.563-3.9688v-3.9688h7.9375v7.9375h-7.9375z" fill="#1a5d1e"/>
  <path d="m127.38 144.68v-3.9688h7.9375v7.9375h-7.9375zm7.9375-15.875v-3.9688h7.9375v7.9375h-7.9375zm-39.688-7.9375v-3.9688h-7.9375v-7.9375h-7.9375v-7.9375h-7.9375v-31.75h7.9375v-15.875h47.625v15.875h7.9375v31.75h-7.9375v7.9375h-7.9375v7.9375h-7.9375v7.9375h-15.875z" fill="#232323"/>
  <path d="m127.38 144.68v-3.9688h7.9375v7.9375h-7.9375zm7.9375-15.875v-3.9688h7.9375v7.9375h-7.9375zm-39.688-7.9375v-3.9688h-7.9375v-7.9375h-7.9375v-7.9375h-7.9375v-31.75h7.9375v-7.9375h7.9375v-7.9375h39.688v15.875h7.9375v31.75h-7.9375v7.9375h-7.9375v7.9375h-7.9375v7.9375h-15.875zm0-55.562v-3.9688h-7.9375v7.9375h7.9375z" fill="#191919"/>
  <path d="m127.38 144.68v-3.9688h7.9375v7.9375h-7.9375zm7.9375-15.875v-3.9688h7.9375v7.9375h-7.9375zm-39.688-7.9375v-3.9688h-7.9375v-7.9375h-7.9375v-7.9375h-7.9375v-15.875h7.9375v-7.9375h7.9375v-7.9375h7.9375v-7.9375h7.9375v-7.9375h7.9375v7.9375h7.9375v7.9375h15.875v7.9375h-15.875v7.9375h15.875v7.9375h-7.9375v15.875h-7.9375v7.9375h-15.875v7.9375h-7.9375zm0-19.844v-7.9375h-7.9375v-7.9375h-7.9375v7.9375h7.9375v15.875h7.9375zm15.875 3.9688v-3.9688h-7.9375v7.9375h7.9375zm0-15.875v-3.9688h-7.9375v-7.9375h-7.9375v7.9375h7.9375v7.9375h7.9375zm0-23.812v-3.9688h-7.9375v7.9375h7.9375z" fill="#030303"/>
 </g>
</svg>
