<svg xmlns="http://www.w3.org/2000/svg" xmlns:xlink="http://www.w3.org/1999/xlink" width="561" height="5" viewBox="0 0 561 5">
  <defs>
    <clipPath id="clip-path">
      <rect width="561" height="5" fill="none"/>
    </clipPath>
  </defs>
  <g id="Repeat_Grid_5" data-name="Repeat Grid 5" clip-path="url(#clip-path)">
    <g transform="translate(-522 -2150)">
      <g id="Rectangle_41" data-name="Rectangle 41" transform="translate(522 2150)" fill="#162452" stroke="#d72edd" stroke-width="1">
        <rect width="5" height="5" stroke="none"/>
        <rect x="0.5" y="0.5" width="4" height="4" fill="none"/>
      </g>
    </g>
    <g transform="translate(-499 -2150)">
      <g id="Rectangle_41-2" data-name="Rectangle 41" transform="translate(522 2150)" fill="#162452" stroke="#d72edd" stroke-width="1">
        <rect width="5" height="5" stroke="none"/>
        <rect x="0.5" y="0.5" width="4" height="4" fill="none"/>
      </g>
    </g>
    <g transform="translate(-476 -2150)">
      <g id="Rectangle_41-3" data-name="Rectangle 41" transform="translate(522 2150)" fill="#162452" stroke="#d72edd" stroke-width="1">
        <rect width="5" height="5" stroke="none"/>
        <rect x="0.5" y="0.5" width="4" height="4" fill="none"/>
      </g>
    </g>
    <g transform="translate(-453 -2150)">
      <g id="Rectangle_41-4" data-name="Rectangle 41" transform="translate(522 2150)" fill="#162452" stroke="#d72edd" stroke-width="1">
        <rect width="5" height="5" stroke="none"/>
        <rect x="0.5" y="0.5" width="4" height="4" fill="none"/>
      </g>
    </g>
    <g transform="translate(-430 -2150)">
      <g id="Rectangle_41-5" data-name="Rectangle 41" transform="translate(522 2150)" fill="#162452" stroke="#d72edd" stroke-width="1">
        <rect width="5" height="5" stroke="none"/>
        <rect x="0.5" y="0.5" width="4" height="4" fill="none"/>
      </g>
    </g>
    <g transform="translate(-407 -2150)">
      <g id="Rectangle_41-6" data-name="Rectangle 41" transform="translate(522 2150)" fill="#162452" stroke="#d72edd" stroke-width="1">
        <rect width="5" height="5" stroke="none"/>
        <rect x="0.5" y="0.5" width="4" height="4" fill="none"/>
      </g>
    </g>
    <g transform="translate(-384 -2150)">
      <g id="Rectangle_41-7" data-name="Rectangle 41" transform="translate(522 2150)" fill="#162452" stroke="#d72edd" stroke-width="1">
        <rect width="5" height="5" stroke="none"/>
        <rect x="0.5" y="0.5" width="4" height="4" fill="none"/>
      </g>
    </g>
    <g transform="translate(-361 -2150)">
      <g id="Rectangle_41-8" data-name="Rectangle 41" transform="translate(522 2150)" fill="#162452" stroke="#d72edd" stroke-width="1">
        <rect width="5" height="5" stroke="none"/>
        <rect x="0.5" y="0.5" width="4" height="4" fill="none"/>
      </g>
    </g>
    <g transform="translate(-338 -2150)">
      <g id="Rectangle_41-9" data-name="Rectangle 41" transform="translate(522 2150)" fill="#162452" stroke="#d72edd" stroke-width="1">
        <rect width="5" height="5" stroke="none"/>
        <rect x="0.5" y="0.5" width="4" height="4" fill="none"/>
      </g>
    </g>
    <g transform="translate(-315 -2150)">
      <g id="Rectangle_41-10" data-name="Rectangle 41" transform="translate(522 2150)" fill="#162452" stroke="#d72edd" stroke-width="1">
        <rect width="5" height="5" stroke="none"/>
        <rect x="0.5" y="0.5" width="4" height="4" fill="none"/>
      </g>
    </g>
    <g transform="translate(-292 -2150)">
      <g id="Rectangle_41-11" data-name="Rectangle 41" transform="translate(522 2150)" fill="#162452" stroke="#d72edd" stroke-width="1">
        <rect width="5" height="5" stroke="none"/>
        <rect x="0.5" y="0.5" width="4" height="4" fill="none"/>
      </g>
    </g>
    <g transform="translate(-269 -2150)">
      <g id="Rectangle_41-12" data-name="Rectangle 41" transform="translate(522 2150)" fill="#162452" stroke="#d72edd" stroke-width="1">
        <rect width="5" height="5" stroke="none"/>
        <rect x="0.5" y="0.5" width="4" height="4" fill="none"/>
      </g>
    </g>
    <g transform="translate(-246 -2150)">
      <g id="Rectangle_41-13" data-name="Rectangle 41" transform="translate(522 2150)" fill="#162452" stroke="#d72edd" stroke-width="1">
        <rect width="5" height="5" stroke="none"/>
        <rect x="0.5" y="0.5" width="4" height="4" fill="none"/>
      </g>
    </g>
    <g transform="translate(-223 -2150)">
      <g id="Rectangle_41-14" data-name="Rectangle 41" transform="translate(522 2150)" fill="#162452" stroke="#d72edd" stroke-width="1">
        <rect width="5" height="5" stroke="none"/>
        <rect x="0.5" y="0.5" width="4" height="4" fill="none"/>
      </g>
    </g>
    <g transform="translate(-200 -2150)">
      <g id="Rectangle_41-15" data-name="Rectangle 41" transform="translate(522 2150)" fill="#162452" stroke="#d72edd" stroke-width="1">
        <rect width="5" height="5" stroke="none"/>
        <rect x="0.5" y="0.5" width="4" height="4" fill="none"/>
      </g>
    </g>
    <g transform="translate(-177 -2150)">
      <g id="Rectangle_41-16" data-name="Rectangle 41" transform="translate(522 2150)" fill="#162452" stroke="#d72edd" stroke-width="1">
        <rect width="5" height="5" stroke="none"/>
        <rect x="0.5" y="0.5" width="4" height="4" fill="none"/>
      </g>
    </g>
    <g transform="translate(-154 -2150)">
      <g id="Rectangle_41-17" data-name="Rectangle 41" transform="translate(522 2150)" fill="#162452" stroke="#d72edd" stroke-width="1">
        <rect width="5" height="5" stroke="none"/>
        <rect x="0.5" y="0.5" width="4" height="4" fill="none"/>
      </g>
    </g>
    <g transform="translate(-131 -2150)">
      <g id="Rectangle_41-18" data-name="Rectangle 41" transform="translate(522 2150)" fill="#162452" stroke="#d72edd" stroke-width="1">
        <rect width="5" height="5" stroke="none"/>
        <rect x="0.5" y="0.5" width="4" height="4" fill="none"/>
      </g>
    </g>
    <g transform="translate(-108 -2150)">
      <g id="Rectangle_41-19" data-name="Rectangle 41" transform="translate(522 2150)" fill="#162452" stroke="#d72edd" stroke-width="1">
        <rect width="5" height="5" stroke="none"/>
        <rect x="0.5" y="0.5" width="4" height="4" fill="none"/>
      </g>
    </g>
    <g transform="translate(-85 -2150)">
      <g id="Rectangle_41-20" data-name="Rectangle 41" transform="translate(522 2150)" fill="#162452" stroke="#d72edd" stroke-width="1">
        <rect width="5" height="5" stroke="none"/>
        <rect x="0.5" y="0.5" width="4" height="4" fill="none"/>
      </g>
    </g>
    <g transform="translate(-62 -2150)">
      <g id="Rectangle_41-21" data-name="Rectangle 41" transform="translate(522 2150)" fill="#162452" stroke="#d72edd" stroke-width="1">
        <rect width="5" height="5" stroke="none"/>
        <rect x="0.5" y="0.5" width="4" height="4" fill="none"/>
      </g>
    </g>
    <g transform="translate(-39 -2150)">
      <g id="Rectangle_41-22" data-name="Rectangle 41" transform="translate(522 2150)" fill="#162452" stroke="#d72edd" stroke-width="1">
        <rect width="5" height="5" stroke="none"/>
        <rect x="0.5" y="0.5" width="4" height="4" fill="none"/>
      </g>
    </g>
    <g transform="translate(-16 -2150)">
      <g id="Rectangle_41-23" data-name="Rectangle 41" transform="translate(522 2150)" fill="#162452" stroke="#d72edd" stroke-width="1">
        <rect width="5" height="5" stroke="none"/>
        <rect x="0.5" y="0.5" width="4" height="4" fill="none"/>
      </g>
    </g>
    <g transform="translate(7 -2150)">
      <g id="Rectangle_41-24" data-name="Rectangle 41" transform="translate(522 2150)" fill="#162452" stroke="#d72edd" stroke-width="1">
        <rect width="5" height="5" stroke="none"/>
        <rect x="0.5" y="0.5" width="4" height="4" fill="none"/>
      </g>
    </g>
    <g transform="translate(30 -2150)">
      <g id="Rectangle_41-25" data-name="Rectangle 41" transform="translate(522 2150)" fill="#162452" stroke="#d72edd" stroke-width="1">
        <rect width="5" height="5" stroke="none"/>
        <rect x="0.5" y="0.5" width="4" height="4" fill="none"/>
      </g>
    </g>
  </g>
</svg>
