<svg xmlns="http://www.w3.org/2000/svg" xmlns:xlink="http://www.w3.org/1999/xlink" width="633" height="5" viewBox="0 0 633 5">
  <defs>
    <clipPath id="clip-path">
      <rect width="633" height="5" fill="none"/>
    </clipPath>
  </defs>
  <g id="Repeat_Grid_5" data-name="Repeat Grid 5" clip-path="url(#clip-path)">
    <g transform="translate(-522 -2150)">
      <g id="Rectangle_41" data-name="Rectangle 41" transform="translate(522 2150)" fill="#162452" stroke="#d72edd" stroke-width="1">
        <rect width="5" height="5" stroke="none"/>
        <rect x="0.5" y="0.5" width="4" height="4" fill="none"/>
      </g>
    </g>
    <g transform="translate(-496 -2150)">
      <g id="Rectangle_41-2" data-name="Rectangle 41" transform="translate(522 2150)" fill="#162452" stroke="#d72edd" stroke-width="1">
        <rect width="5" height="5" stroke="none"/>
        <rect x="0.5" y="0.5" width="4" height="4" fill="none"/>
      </g>
    </g>
    <g transform="translate(-470 -2150)">
      <g id="Rectangle_41-3" data-name="Rectangle 41" transform="translate(522 2150)" fill="#162452" stroke="#d72edd" stroke-width="1">
        <rect width="5" height="5" stroke="none"/>
        <rect x="0.5" y="0.5" width="4" height="4" fill="none"/>
      </g>
    </g>
    <g transform="translate(-444 -2150)">
      <g id="Rectangle_41-4" data-name="Rectangle 41" transform="translate(522 2150)" fill="#162452" stroke="#d72edd" stroke-width="1">
        <rect width="5" height="5" stroke="none"/>
        <rect x="0.5" y="0.5" width="4" height="4" fill="none"/>
      </g>
    </g>
    <g transform="translate(-418 -2150)">
      <g id="Rectangle_41-5" data-name="Rectangle 41" transform="translate(522 2150)" fill="#162452" stroke="#d72edd" stroke-width="1">
        <rect width="5" height="5" stroke="none"/>
        <rect x="0.5" y="0.5" width="4" height="4" fill="none"/>
      </g>
    </g>
    <g transform="translate(-392 -2150)">
      <g id="Rectangle_41-6" data-name="Rectangle 41" transform="translate(522 2150)" fill="#162452" stroke="#d72edd" stroke-width="1">
        <rect width="5" height="5" stroke="none"/>
        <rect x="0.5" y="0.5" width="4" height="4" fill="none"/>
      </g>
    </g>
    <g transform="translate(-366 -2150)">
      <g id="Rectangle_41-7" data-name="Rectangle 41" transform="translate(522 2150)" fill="#162452" stroke="#d72edd" stroke-width="1">
        <rect width="5" height="5" stroke="none"/>
        <rect x="0.5" y="0.5" width="4" height="4" fill="none"/>
      </g>
    </g>
    <g transform="translate(-340 -2150)">
      <g id="Rectangle_41-8" data-name="Rectangle 41" transform="translate(522 2150)" fill="#162452" stroke="#d72edd" stroke-width="1">
        <rect width="5" height="5" stroke="none"/>
        <rect x="0.5" y="0.5" width="4" height="4" fill="none"/>
      </g>
    </g>
    <g transform="translate(-314 -2150)">
      <g id="Rectangle_41-9" data-name="Rectangle 41" transform="translate(522 2150)" fill="#162452" stroke="#d72edd" stroke-width="1">
        <rect width="5" height="5" stroke="none"/>
        <rect x="0.5" y="0.5" width="4" height="4" fill="none"/>
      </g>
    </g>
    <g transform="translate(-288 -2150)">
      <g id="Rectangle_41-10" data-name="Rectangle 41" transform="translate(522 2150)" fill="#162452" stroke="#d72edd" stroke-width="1">
        <rect width="5" height="5" stroke="none"/>
        <rect x="0.5" y="0.5" width="4" height="4" fill="none"/>
      </g>
    </g>
    <g transform="translate(-262 -2150)">
      <g id="Rectangle_41-11" data-name="Rectangle 41" transform="translate(522 2150)" fill="#162452" stroke="#d72edd" stroke-width="1">
        <rect width="5" height="5" stroke="none"/>
        <rect x="0.5" y="0.5" width="4" height="4" fill="none"/>
      </g>
    </g>
    <g transform="translate(-236 -2150)">
      <g id="Rectangle_41-12" data-name="Rectangle 41" transform="translate(522 2150)" fill="#162452" stroke="#d72edd" stroke-width="1">
        <rect width="5" height="5" stroke="none"/>
        <rect x="0.5" y="0.5" width="4" height="4" fill="none"/>
      </g>
    </g>
    <g transform="translate(-210 -2150)">
      <g id="Rectangle_41-13" data-name="Rectangle 41" transform="translate(522 2150)" fill="#162452" stroke="#d72edd" stroke-width="1">
        <rect width="5" height="5" stroke="none"/>
        <rect x="0.5" y="0.5" width="4" height="4" fill="none"/>
      </g>
    </g>
    <g transform="translate(-184 -2150)">
      <g id="Rectangle_41-14" data-name="Rectangle 41" transform="translate(522 2150)" fill="#162452" stroke="#d72edd" stroke-width="1">
        <rect width="5" height="5" stroke="none"/>
        <rect x="0.5" y="0.5" width="4" height="4" fill="none"/>
      </g>
    </g>
    <g transform="translate(-158 -2150)">
      <g id="Rectangle_41-15" data-name="Rectangle 41" transform="translate(522 2150)" fill="#162452" stroke="#d72edd" stroke-width="1">
        <rect width="5" height="5" stroke="none"/>
        <rect x="0.5" y="0.5" width="4" height="4" fill="none"/>
      </g>
    </g>
    <g transform="translate(-132 -2150)">
      <g id="Rectangle_41-16" data-name="Rectangle 41" transform="translate(522 2150)" fill="#162452" stroke="#d72edd" stroke-width="1">
        <rect width="5" height="5" stroke="none"/>
        <rect x="0.5" y="0.5" width="4" height="4" fill="none"/>
      </g>
    </g>
    <g transform="translate(-106 -2150)">
      <g id="Rectangle_41-17" data-name="Rectangle 41" transform="translate(522 2150)" fill="#162452" stroke="#d72edd" stroke-width="1">
        <rect width="5" height="5" stroke="none"/>
        <rect x="0.5" y="0.5" width="4" height="4" fill="none"/>
      </g>
    </g>
    <g transform="translate(-80 -2150)">
      <g id="Rectangle_41-18" data-name="Rectangle 41" transform="translate(522 2150)" fill="#162452" stroke="#d72edd" stroke-width="1">
        <rect width="5" height="5" stroke="none"/>
        <rect x="0.5" y="0.5" width="4" height="4" fill="none"/>
      </g>
    </g>
    <g transform="translate(-54 -2150)">
      <g id="Rectangle_41-19" data-name="Rectangle 41" transform="translate(522 2150)" fill="#162452" stroke="#d72edd" stroke-width="1">
        <rect width="5" height="5" stroke="none"/>
        <rect x="0.5" y="0.5" width="4" height="4" fill="none"/>
      </g>
    </g>
    <g transform="translate(-28 -2150)">
      <g id="Rectangle_41-20" data-name="Rectangle 41" transform="translate(522 2150)" fill="#162452" stroke="#d72edd" stroke-width="1">
        <rect width="5" height="5" stroke="none"/>
        <rect x="0.5" y="0.5" width="4" height="4" fill="none"/>
      </g>
    </g>
    <g transform="translate(-2 -2150)">
      <g id="Rectangle_41-21" data-name="Rectangle 41" transform="translate(522 2150)" fill="#162452" stroke="#d72edd" stroke-width="1">
        <rect width="5" height="5" stroke="none"/>
        <rect x="0.5" y="0.5" width="4" height="4" fill="none"/>
      </g>
    </g>
    <g transform="translate(24 -2150)">
      <g id="Rectangle_41-22" data-name="Rectangle 41" transform="translate(522 2150)" fill="#162452" stroke="#d72edd" stroke-width="1">
        <rect width="5" height="5" stroke="none"/>
        <rect x="0.5" y="0.5" width="4" height="4" fill="none"/>
      </g>
    </g>
    <g transform="translate(50 -2150)">
      <g id="Rectangle_41-23" data-name="Rectangle 41" transform="translate(522 2150)" fill="#162452" stroke="#d72edd" stroke-width="1">
        <rect width="5" height="5" stroke="none"/>
        <rect x="0.5" y="0.5" width="4" height="4" fill="none"/>
      </g>
    </g>
    <g transform="translate(76 -2150)">
      <g id="Rectangle_41-24" data-name="Rectangle 41" transform="translate(522 2150)" fill="#162452" stroke="#d72edd" stroke-width="1">
        <rect width="5" height="5" stroke="none"/>
        <rect x="0.5" y="0.5" width="4" height="4" fill="none"/>
      </g>
    </g>
    <g transform="translate(102 -2150)">
      <g id="Rectangle_41-25" data-name="Rectangle 41" transform="translate(522 2150)" fill="#162452" stroke="#d72edd" stroke-width="1">
        <rect width="5" height="5" stroke="none"/>
        <rect x="0.5" y="0.5" width="4" height="4" fill="none"/>
      </g>
    </g>
  </g>
</svg>
