<svg xmlns="http://www.w3.org/2000/svg" width="50" height="50" viewBox="0 0 50 50">
  <g id="Symbol_1_1" data-name="Symbol 1 – 1" transform="translate(-567 -1447)">
    <g id="Path_1" data-name="Path 1" transform="translate(567 1447)" fill="#e71795">
      <path d="M 25 45.5 C 19.52424430847168 45.5 14.37624454498291 43.36763381958008 10.50431156158447 39.49568939208984 C 6.63236665725708 35.62375640869141 4.5 30.47575569152832 4.5 25 C 4.5 19.52424430847168 6.63236665725708 14.37624454498291 10.50431156158447 10.50431156158447 C 14.37624454498291 6.63236665725708 19.52424430847168 4.5 25 4.5 C 30.47575569152832 4.5 35.62375640869141 6.63236665725708 39.49568939208984 10.50431156158447 C 43.36763381958008 14.37624454498291 45.5 19.52424430847168 45.5 25 C 45.5 30.47575569152832 43.36763381958008 35.62375640869141 39.49568939208984 39.49568939208984 C 35.62375640869141 43.36763381958008 30.47575569152832 45.5 25 45.5 Z" stroke="none"/>
      <path d="M 25 9 C 16.17757034301758 9 9 16.17757034301758 9 25 C 9 33.82243347167969 16.17757034301758 41 25 41 C 33.82243347167969 41 41 33.82243347167969 41 25 C 41 16.17757034301758 33.82243347167969 9 25 9 M 25 0 C 38.80712127685547 0 50 11.19287872314453 50 25 C 50 38.80712127685547 38.80712127685547 50 25 50 C 11.19287872314453 50 0 38.80712127685547 0 25 C 0 11.19287872314453 11.19287872314453 0 25 0 Z" stroke="none" fill="#5dd4cb"/>
    </g>
  </g>
</svg>
